<mxfile host="Electron" modified="2024-08-05T06:51:24.574Z" agent="Mozilla/5.0 (Windows NT 10.0; Win64; x64) AppleWebKit/537.36 (KHTML, like Gecko) draw.io/24.6.4 Chrome/124.0.6367.207 Electron/30.0.6 Safari/537.36" etag="z0acCOGadF63TGiJ5lW5" version="24.6.4" type="device">
  <diagram name="开始" id="j_qmja91c2U4V1MYprvX">
    <mxGraphModel dx="3489" dy="2351" grid="1" gridSize="10" guides="1" tooltips="1" connect="1" arrows="1" fold="1" page="0" pageScale="1" pageWidth="827" pageHeight="1169" math="0" shadow="0">
      <root>
        <mxCell id="0" />
        <mxCell id="1" parent="0" />
        <mxCell id="oFGBH3PfHgPiBXVuauY8-1" value="Actor" style="shape=umlActor;verticalLabelPosition=bottom;verticalAlign=top;html=1;outlineConnect=0;" vertex="1" parent="1">
          <mxGeometry x="80" y="330" width="30" height="60" as="geometry" />
        </mxCell>
        <mxCell id="oFGBH3PfHgPiBXVuauY8-3" value="Actor" style="shape=umlActor;verticalLabelPosition=bottom;verticalAlign=top;html=1;outlineConnect=0;" vertex="1" parent="1">
          <mxGeometry x="80" y="200" width="30" height="60" as="geometry" />
        </mxCell>
        <mxCell id="oFGBH3PfHgPiBXVuauY8-4" value="Application" style="rounded=0;whiteSpace=wrap;html=1;verticalAlign=top;align=left;fontStyle=1;fontSize=17;dashed=1;dashPattern=12 12;" vertex="1" parent="1">
          <mxGeometry x="200" y="90" width="250" height="410" as="geometry" />
        </mxCell>
        <mxCell id="oFGBH3PfHgPiBXVuauY8-16" style="edgeStyle=orthogonalEdgeStyle;rounded=0;orthogonalLoop=1;jettySize=auto;html=1;entryX=0;entryY=0.5;entryDx=0;entryDy=0;" edge="1" parent="1" source="oFGBH3PfHgPiBXVuauY8-7" target="oFGBH3PfHgPiBXVuauY8-14">
          <mxGeometry relative="1" as="geometry" />
        </mxCell>
        <mxCell id="oFGBH3PfHgPiBXVuauY8-7" value="Thread" style="ellipse;whiteSpace=wrap;html=1;fillColor=#fa6800;fontColor=#000000;strokeColor=#C73500;" vertex="1" parent="1">
          <mxGeometry x="230" y="190" width="120" height="80" as="geometry" />
        </mxCell>
        <mxCell id="oFGBH3PfHgPiBXVuauY8-17" style="edgeStyle=orthogonalEdgeStyle;rounded=0;orthogonalLoop=1;jettySize=auto;html=1;entryX=0;entryY=0.5;entryDx=0;entryDy=0;" edge="1" parent="1" source="oFGBH3PfHgPiBXVuauY8-8" target="oFGBH3PfHgPiBXVuauY8-15">
          <mxGeometry relative="1" as="geometry" />
        </mxCell>
        <mxCell id="oFGBH3PfHgPiBXVuauY8-8" value="Thread" style="ellipse;whiteSpace=wrap;html=1;fillColor=#fa6800;fontColor=#000000;strokeColor=#C73500;" vertex="1" parent="1">
          <mxGeometry x="230" y="320" width="120" height="80" as="geometry" />
        </mxCell>
        <mxCell id="oFGBH3PfHgPiBXVuauY8-9" value="Connection Pool" style="rounded=1;whiteSpace=wrap;html=1;verticalAlign=top;fontStyle=1;fontSize=17;fillColor=#1ba1e2;fontColor=#ffffff;strokeColor=#006EAF;" vertex="1" parent="1">
          <mxGeometry x="390" y="140" width="230" height="310" as="geometry" />
        </mxCell>
        <mxCell id="oFGBH3PfHgPiBXVuauY8-11" value="Database" style="strokeWidth=1;html=1;shape=mxgraph.flowchart.database;whiteSpace=wrap;verticalAlign=top;fontSize=17;direction=south;dashed=1;dashPattern=12 12;" vertex="1" parent="1">
          <mxGeometry x="960" y="90" width="900" height="640" as="geometry" />
        </mxCell>
        <mxCell id="oFGBH3PfHgPiBXVuauY8-13" style="edgeStyle=orthogonalEdgeStyle;rounded=0;orthogonalLoop=1;jettySize=auto;html=1;entryX=0;entryY=0.5;entryDx=0;entryDy=0;" edge="1" parent="1" source="oFGBH3PfHgPiBXVuauY8-1" target="oFGBH3PfHgPiBXVuauY8-8">
          <mxGeometry relative="1" as="geometry" />
        </mxCell>
        <mxCell id="oFGBH3PfHgPiBXVuauY8-12" style="edgeStyle=orthogonalEdgeStyle;rounded=0;orthogonalLoop=1;jettySize=auto;html=1;entryX=0;entryY=0.5;entryDx=0;entryDy=0;" edge="1" parent="1" source="oFGBH3PfHgPiBXVuauY8-3" target="oFGBH3PfHgPiBXVuauY8-7">
          <mxGeometry relative="1" as="geometry" />
        </mxCell>
        <mxCell id="oFGBH3PfHgPiBXVuauY8-14" value="Connection" style="rounded=1;whiteSpace=wrap;html=1;fillColor=#e3c800;fontColor=#000000;strokeColor=#B09500;" vertex="1" parent="1">
          <mxGeometry x="445" y="200" width="120" height="60" as="geometry" />
        </mxCell>
        <mxCell id="oFGBH3PfHgPiBXVuauY8-15" value="Connection" style="rounded=1;whiteSpace=wrap;html=1;fillColor=#e3c800;fontColor=#000000;strokeColor=#B09500;" vertex="1" parent="1">
          <mxGeometry x="445" y="330" width="120" height="60" as="geometry" />
        </mxCell>
        <mxCell id="oFGBH3PfHgPiBXVuauY8-18" value="Connection Pool" style="rounded=1;whiteSpace=wrap;html=1;verticalAlign=top;fontStyle=1;fontSize=17;fillColor=#1ba1e2;fontColor=#ffffff;strokeColor=#006EAF;" vertex="1" parent="1">
          <mxGeometry x="790" y="140" width="230" height="310" as="geometry" />
        </mxCell>
        <mxCell id="oFGBH3PfHgPiBXVuauY8-25" style="edgeStyle=orthogonalEdgeStyle;rounded=0;orthogonalLoop=1;jettySize=auto;html=1;entryX=0;entryY=0.5;entryDx=0;entryDy=0;" edge="1" parent="1" source="oFGBH3PfHgPiBXVuauY8-19" target="oFGBH3PfHgPiBXVuauY8-24">
          <mxGeometry relative="1" as="geometry" />
        </mxCell>
        <mxCell id="oFGBH3PfHgPiBXVuauY8-19" value="Connection" style="rounded=1;whiteSpace=wrap;html=1;fillColor=#e3c800;fontColor=#000000;strokeColor=#B09500;" vertex="1" parent="1">
          <mxGeometry x="845" y="200" width="120" height="60" as="geometry" />
        </mxCell>
        <mxCell id="oFGBH3PfHgPiBXVuauY8-20" value="Connection" style="rounded=1;whiteSpace=wrap;html=1;fillColor=#e3c800;fontColor=#000000;strokeColor=#B09500;" vertex="1" parent="1">
          <mxGeometry x="845" y="330" width="120" height="60" as="geometry" />
        </mxCell>
        <mxCell id="oFGBH3PfHgPiBXVuauY8-21" value="" style="html=1;shadow=0;dashed=0;align=center;verticalAlign=middle;shape=mxgraph.arrows2.arrow;dy=0.6;dx=40;notch=0;" vertex="1" parent="1">
          <mxGeometry x="660" y="260" width="100" height="70" as="geometry" />
        </mxCell>
        <mxCell id="oFGBH3PfHgPiBXVuauY8-27" style="edgeStyle=orthogonalEdgeStyle;rounded=0;orthogonalLoop=1;jettySize=auto;html=1;entryX=0;entryY=0.5;entryDx=0;entryDy=0;" edge="1" parent="1" source="oFGBH3PfHgPiBXVuauY8-24" target="oFGBH3PfHgPiBXVuauY8-26">
          <mxGeometry relative="1" as="geometry" />
        </mxCell>
        <mxCell id="oFGBH3PfHgPiBXVuauY8-24" value="Thread" style="ellipse;whiteSpace=wrap;html=1;fillColor=#fa6800;fontColor=#000000;strokeColor=#C73500;" vertex="1" parent="1">
          <mxGeometry x="1070" y="190" width="120" height="80" as="geometry" />
        </mxCell>
        <mxCell id="oFGBH3PfHgPiBXVuauY8-30" value="" style="edgeStyle=orthogonalEdgeStyle;rounded=0;orthogonalLoop=1;jettySize=auto;html=1;" edge="1" parent="1" source="oFGBH3PfHgPiBXVuauY8-26" target="oFGBH3PfHgPiBXVuauY8-28">
          <mxGeometry relative="1" as="geometry" />
        </mxCell>
        <mxCell id="oFGBH3PfHgPiBXVuauY8-26" value="SQL 解析器" style="rounded=1;whiteSpace=wrap;html=1;" vertex="1" parent="1">
          <mxGeometry x="1250" y="200" width="120" height="60" as="geometry" />
        </mxCell>
        <mxCell id="oFGBH3PfHgPiBXVuauY8-31" value="" style="edgeStyle=orthogonalEdgeStyle;rounded=0;orthogonalLoop=1;jettySize=auto;html=1;exitX=0.5;exitY=1;exitDx=0;exitDy=0;entryX=1;entryY=0.5;entryDx=0;entryDy=0;" edge="1" parent="1" source="oFGBH3PfHgPiBXVuauY8-28" target="oFGBH3PfHgPiBXVuauY8-29">
          <mxGeometry relative="1" as="geometry" />
        </mxCell>
        <mxCell id="oFGBH3PfHgPiBXVuauY8-28" value="SQL 优化器" style="rounded=1;whiteSpace=wrap;html=1;" vertex="1" parent="1">
          <mxGeometry x="1430" y="200" width="120" height="60" as="geometry" />
        </mxCell>
        <mxCell id="oFGBH3PfHgPiBXVuauY8-36" style="edgeStyle=orthogonalEdgeStyle;rounded=0;orthogonalLoop=1;jettySize=auto;html=1;entryX=0.5;entryY=0;entryDx=0;entryDy=0;exitX=0.5;exitY=1;exitDx=0;exitDy=0;" edge="1" parent="1" source="oFGBH3PfHgPiBXVuauY8-29" target="oFGBH3PfHgPiBXVuauY8-33">
          <mxGeometry relative="1" as="geometry" />
        </mxCell>
        <mxCell id="oFGBH3PfHgPiBXVuauY8-29" value="SQL 执行器" style="rounded=1;whiteSpace=wrap;html=1;" vertex="1" parent="1">
          <mxGeometry x="1250" y="335" width="120" height="60" as="geometry" />
        </mxCell>
        <mxCell id="oFGBH3PfHgPiBXVuauY8-37" style="edgeStyle=orthogonalEdgeStyle;rounded=0;orthogonalLoop=1;jettySize=auto;html=1;entryX=0.5;entryY=0;entryDx=0;entryDy=0;" edge="1" parent="1" source="oFGBH3PfHgPiBXVuauY8-33" target="oFGBH3PfHgPiBXVuauY8-34">
          <mxGeometry relative="1" as="geometry" />
        </mxCell>
        <mxCell id="oFGBH3PfHgPiBXVuauY8-38" style="edgeStyle=orthogonalEdgeStyle;rounded=0;orthogonalLoop=1;jettySize=auto;html=1;entryX=0.5;entryY=0;entryDx=0;entryDy=0;" edge="1" parent="1" source="oFGBH3PfHgPiBXVuauY8-33" target="oFGBH3PfHgPiBXVuauY8-35">
          <mxGeometry relative="1" as="geometry" />
        </mxCell>
        <mxCell id="oFGBH3PfHgPiBXVuauY8-33" value="存储引擎" style="rounded=1;whiteSpace=wrap;html=1;" vertex="1" parent="1">
          <mxGeometry x="1250" y="450" width="120" height="60" as="geometry" />
        </mxCell>
        <mxCell id="oFGBH3PfHgPiBXVuauY8-34" value="内存数据" style="rounded=1;whiteSpace=wrap;html=1;" vertex="1" parent="1">
          <mxGeometry x="1130" y="595" width="120" height="60" as="geometry" />
        </mxCell>
        <mxCell id="oFGBH3PfHgPiBXVuauY8-35" value="磁盘数据" style="rounded=1;whiteSpace=wrap;html=1;" vertex="1" parent="1">
          <mxGeometry x="1370" y="595" width="120" height="60" as="geometry" />
        </mxCell>
      </root>
    </mxGraphModel>
  </diagram>
</mxfile>
